<?xml version="1.0" standalone="no"?>
<!DOCTYPE svg PUBLIC "-//W3C//DTD SVG 20010904//EN"
 "http://www.w3.org/TR/2001/REC-SVG-20010904/DTD/svg10.dtd">
<svg version="1.0" xmlns="http://www.w3.org/2000/svg"
 width="1024.000000pt" height="1024.000000pt" viewBox="0 0 1024.000000 1024.000000"
 preserveAspectRatio="xMidYMid meet">
<metadata>
Created by potrace 1.11, written by Peter Selinger 2001-2013
</metadata>
<g transform="translate(0.000000,1024.000000) scale(0.100000,-0.100000)"
fill="#000000" stroke="none">
<path d="M7609 9336 c-2 -2 -23 -6 -47 -10 -61 -8 -168 -53 -235 -98 -32 -22
-254 -235 -493 -474 l-434 -434 955 -955 c525 -525 959 -955 965 -955 19 0
868 858 907 917 81 120 107 208 107 358 0 88 -5 124 -23 180 -25 77 -79 185
-92 185 -5 0 -9 5 -9 11 0 6 -17 29 -37 50 -53 56 -1042 1042 -1075 1073 -35
32 -118 89 -118 81 0 -3 -10 1 -23 9 -47 32 -152 58 -248 62 -53 2 -98 2 -100
0z"/>
<path d="M3192 5114 l-2552 -2554 2 -958 3 -957 35 -5 c19 -3 52 -3 73 1 20 3
37 4 37 0 0 -3 20 -6 45 -6 25 0 45 3 45 6 0 4 17 3 38 0 20 -4 54 -4 74 -1
21 4 38 4 38 1 0 -3 20 -6 45 -6 25 0 45 3 45 6 0 4 18 3 40 -1 22 -4 43 -4
45 0 3 4 20 4 39 0 19 -4 53 -4 75 0 23 4 41 4 41 0 0 -4 18 -4 40 0 22 4 40
4 40 0 0 -4 18 -4 40 0 22 4 40 4 40 0 0 -4 18 -4 40 0 22 4 40 4 40 0 0 -4
18 -4 40 0 22 4 40 4 40 0 0 -4 18 -4 40 0 22 4 40 4 40 0 0 -4 18 -4 40 0 23
4 40 3 40 -2 0 -5 5 -6 10 -3 11 7 65 7 218 2 39 -1 72 1 72 4 0 4 18 3 39 -1
22 -4 45 -4 51 0 7 4 24 5 38 1 14 -4 47 -4 74 -1 26 4 48 4 48 1 0 -3 20 -6
45 -6 25 0 45 2 45 5 0 3 18 4 39 2 l39 -4 2561 2561 2561 2561 -955 955
c-525 525 -961 955 -967 954 -7 0 -1162 -1150 -2566 -2555z m-1843 -2555 c8 5
27 5 42 1 18 -5 29 -5 29 1 0 7 6 7 17 0 11 -6 24 -6 35 0 10 5 19 5 23 0 3
-5 17 -6 33 -2 15 5 37 4 50 0 13 -5 22 -5 22 2 0 6 6 6 18 0 11 -6 24 -6 34
0 10 6 19 6 23 0 4 -7 15 -7 30 -1 14 5 25 6 25 1 0 -5 12 -6 28 -2 15 4 39 4
55 0 16 -4 27 -4 27 2 0 6 8 5 20 -1 12 -6 20 -7 20 -1 0 5 9 7 19 4 14 -3 18
-13 17 -34 -1 -16 1 -29 5 -29 4 0 4 -13 -1 -30 -5 -16 -6 -30 -2 -30 8 0 6
-85 -2 -106 -3 -8 -1 -14 4 -14 5 0 5 -13 0 -30 -5 -17 -5 -30 0 -30 5 0 5
-13 0 -30 -5 -17 -5 -30 0 -30 5 0 5 -13 0 -30 -5 -17 -5 -30 0 -30 5 0 5 -13
0 -30 -5 -17 -5 -30 0 -30 5 0 5 -13 0 -30 -5 -17 -5 -30 0 -30 5 0 5 -13 0
-30 -5 -17 -5 -30 0 -30 5 0 7 -7 4 -15 -7 -17 36 -38 50 -25 5 5 19 4 32 0
15 -6 24 -6 24 0 0 6 9 6 23 1 13 -5 30 -5 39 0 11 6 19 5 23 -1 4 -7 12 -7
25 0 13 7 21 7 25 0 4 -6 11 -7 17 -4 13 8 134 8 147 -1 6 -3 11 -2 11 4 0 7
8 7 25 1 16 -6 25 -6 25 0 0 6 9 6 25 0 15 -6 26 -6 30 1 4 6 13 6 23 0 10 -6
23 -6 34 0 10 6 19 5 23 -1 3 -5 13 -6 22 -3 12 5 15 2 10 -10 -3 -9 -2 -19 3
-22 7 -4 6 -13 0 -26 -8 -13 -7 -19 0 -19 8 0 8 -6 0 -20 -8 -14 -8 -20 0 -20
8 0 8 -6 0 -20 -8 -14 -8 -20 0 -20 8 0 8 -6 0 -20 -8 -14 -8 -20 0 -20 8 0 8
-6 0 -20 -8 -14 -8 -20 0 -20 8 0 8 -6 0 -20 -8 -14 -8 -20 0 -20 8 0 8 -6 0
-20 -8 -14 -8 -20 0 -20 8 0 8 -6 0 -20 -8 -14 -8 -20 0 -20 8 0 8 -6 0 -20
-8 -14 -8 -20 0 -20 8 0 8 -6 0 -20 -8 -14 -8 -20 0 -20 7 0 8 -6 0 -19 -7
-14 -7 -22 1 -27 7 -4 8 -9 0 -17 -7 -7 -7 -16 0 -29 6 -12 6 -18 0 -18 -7 0
-7 -8 -2 -22 5 -13 5 -32 1 -43 -4 -11 -6 -22 -5 -25 2 -3 -26 -5 -61 -5 -35
0 -64 3 -64 7 0 4 -13 3 -30 -2 -17 -5 -30 -5 -30 0 0 5 -13 5 -30 0 -17 -5
-32 -5 -35 0 -3 5 -16 5 -30 0 -15 -6 -27 -6 -30 0 -3 6 -15 6 -30 0 -15 -6
-27 -6 -30 0 -3 6 -15 6 -30 0 -15 -6 -27 -6 -30 0 -3 5 -15 6 -28 1 -12 -5
-34 -5 -49 0 -16 4 -28 4 -28 -1 0 -5 -13 -5 -30 0 -17 5 -30 5 -30 0 0 -5
-13 -5 -30 0 -17 5 -30 5 -30 0 0 -5 -13 -5 -30 0 -17 5 -30 5 -30 0 0 -5 -13
-5 -30 0 -17 5 -30 5 -30 0 0 -5 -13 -5 -30 0 -17 5 -30 5 -30 0 0 -5 -13 -5
-30 0 -17 5 -30 5 -30 0 0 -5 -13 -5 -30 0 -17 5 -30 5 -30 0 0 -5 -13 -5 -30
0 -17 5 -30 5 -30 0 0 -5 -13 -5 -30 0 -17 5 -30 5 -30 0 0 -5 -13 -5 -30 0
-17 5 -30 5 -30 0 0 -5 -13 -5 -30 0 -21 6 -30 5 -31 -3 0 -7 -2 -8 -5 -2 -2
6 -21 9 -40 7 -28 -3 -35 -1 -32 9 3 8 1 26 -3 41 -4 16 -3 30 2 34 5 3 7 9 4
14 -3 4 -5 25 -5 47 0 80 0 144 0 161 0 9 0 31 -1 47 0 17 0 37 0 45 3 90 1
141 -3 149 -4 5 -2 12 4 16 6 4 8 10 5 15 -3 4 -5 25 -5 47 0 80 0 144 0 161
0 9 0 31 -1 47 0 17 0 37 0 45 3 90 1 141 -3 149 -4 5 -2 12 4 16 6 4 8 11 4
16 -5 9 -6 65 -2 149 1 20 -2 41 -6 48 -9 15 34 34 49 21 6 -4 17 -4 24 0z"/>
</g>
</svg>
