<?xml version="1.0" encoding="UTF-8" standalone="no"?>
<svg viewBox="0 0 1018.2194 746.34564" xmlns="http://www.w3.org/2000/svg" xmlns:xlink="http://www.w3.org/1999/xlink">
<defs>
<clipPath id="clipPath3041">
<path d="m1.3071,306.0165h1018.2194v746.3456h-1018.2194z"/>
</clipPath>
<filter id="filter4143">
<feGaussianBlur stdDeviation="5.097"/>
</filter>
<filter id="filter4167">
<feGaussianBlur stdDeviation="3.326"/>
</filter>
<linearGradient id="linearGradient3757">
<stop offset="0" stop-color="#fff" stop-opacity=".584"/>
<stop offset="1" stop-color="#fff" stop-opacity="0"/>
</linearGradient>
<radialGradient cx="485.0507" cy="214.5142" gradientTransform="matrix(1.06473,0,0,.77817,-5.32577,511.87681)" gradientUnits="userSpaceOnUse" id="radialGradient3045" r="480">
<stop offset="0" stop-color="#50a3ed"/>
<stop offset="1" stop-color="#118af5"/>
</radialGradient>
<radialGradient cx="374.7542" cy="257.3596" gradientTransform="matrix(.25255,-1.0054,1.05868,-.30472,-211.87298,1020.0639)" gradientUnits="userSpaceOnUse" id="radialGradient3047" r="371.6305" xlink:href="#linearGradient3757"/>
<radialGradient cx="483.9877" cy="251.2387" gradientTransform="matrix(.72618,-.61605,1.60742,.81469,-307.14995,330.59472)" gradientUnits="userSpaceOnUse" id="radialGradient3049" r="371.6305" xlink:href="#linearGradient3757"/>
<radialGradient cx="483.9877" cy="251.2387" gradientTransform="matrix(-1.38909,.07219,-.64596,1.94227,1686.2831,260.69853)" gradientUnits="userSpaceOnUse" id="radialGradient3051" r="371.6305" xlink:href="#linearGradient3757"/>
<radialGradient cx="374.7542" cy="257.3596" gradientTransform="matrix(.86057,.66063,.22658,.92824,315.49687,358.43472)" gradientUnits="userSpaceOnUse" id="radialGradient3053" r="371.6305" xlink:href="#linearGradient3757"/>
<radialGradient cx="374.7542" cy="257.3596" gradientTransform="matrix(.45008,-.56113,.54356,.13132,276.84752,628.29343)" gradientUnits="userSpaceOnUse" id="radialGradient3055" r="371.6305" xlink:href="#linearGradient3757"/>
<radialGradient cx="374.7542" cy="257.3596" gradientTransform="matrix(-.73337,-.58125,-1.11661,-.01935,899.00844,608.08482)" gradientUnits="userSpaceOnUse" id="radialGradient3057" r="371.6305" xlink:href="#linearGradient3757"/>
<radialGradient cx="374.7542" cy="257.3596" gradientTransform="matrix(-.06838,-.71607,.4813,-.2847,692.3515,684.18135)" gradientUnits="userSpaceOnUse" id="radialGradient3059" r="371.6305" xlink:href="#linearGradient3757"/>
</defs>
<g transform="translate(-1.3071,-306.0165)">
<g clip-path="url(#clipPath3041)">
<path d="m.0519,305.2826h1022.1373v747.0471h-1022.1373z" fill="url(#radialGradient3045)"/>
<path d="m432.4467,974.9683c-165.1626-426.2832-526.7201-600.7722-941.6951-750.1741 339.998,69.1528 971.8621-66.5443 1018.851,323.0586-196.812,176.6768-54.3499,310.5164-77.1559,427.1155z" fill="url(#radialGradient3047)" opacity=".527"/>
<path d="m382.1245,539.9968c-472.9374-81.6377-129.8848-393.8656-384.5063-619.8201 255.7732,172.4829 522.9722,404.0511 649.3658,532.8454-273.7081-44.7235-177.4072,67.707-264.8595,86.9748z" fill="url(#radialGradient3049)" filter="url(#filter4143)" opacity=".327" transform="matrix(1.01367,0,0,1.22229,-133.24151,432.8209)"/>
<path d="m1253.2559,979.0506c-189.0428-175.4612-313.5593-425.368-319.2839-812.3277-519.3543,26.3901-127.1553,696.4093-33.8025,951.3481 214.8014-253.8088 247.0395-85.3856 353.0864-139.0204z" fill="url(#radialGradient3051)" opacity=".527"/>
<path d="m332.027,857.2765c284.1904-28.1491 523.8463-124.0788 681.515-344.7911-71.6513,219.4628-267.7514,415.5502-333.014,561.0959-145.9122-229.0833-248.4717-144.4947-348.5009-216.3048z" fill="url(#radialGradient3053)" opacity=".527"/>
<path d="m559.4462,797.3719c-305.0471-33.6793-22.5573-536.2488-132.6763-765.4887 117.1921,148.2613 209.9599,404.3647 286.0762,519.2996-142.284,51.829-103.8899,179.1239-153.3999,246.1891z" fill="url(#radialGradient3055)" opacity=".527"/>
<path d="m289.7098,683.0835c59.3843-235.6059 197.8494-447.0858 481.9003-614.15-274.9785,97.0408-532.2505,290.9273-716.1696,369.683 267.6791,77.804 155.1213,176.022 234.2693,244.467z" fill="url(#radialGradient3057)" filter="url(#filter4167)" opacity=".302" transform="matrix(1.08281,0,0,1.35167,-217.84981,176.49154)"/>
<path d="m1012.8412,608.4458c-242.2116,188.4715-389.9469-368.7994-628.6917-456.4237 187.3737,24.6278 432.4009,143.6088 567.0918,172.9699-65.9006,136.3381 50.3563,200.855 61.5999,283.4538z" fill="url(#radialGradient3059)" opacity=".527"/>
</g>
</g>
</svg>
